<?xml version="1.0" encoding="UTF-8" standalone="no"?>
<!DOCTYPE svg PUBLIC "-//W3C//DTD SVG 1.1//EN" "http://www.w3.org/Graphics/SVG/1.1/DTD/svg11.dtd">
<svg width="100%" height="100%" viewBox="0 0 448 512" version="1.1" xmlns="http://www.w3.org/2000/svg" xmlns:xlink="http://www.w3.org/1999/xlink" xml:space="preserve" xmlns:serif="http://www.serif.com/" style="fill-rule:evenodd;clip-rule:evenodd;stroke-linejoin:round;stroke-miterlimit:2;">
    <g>
        <path d="M216,272C216,249.36 204.05,237.41 195.31,228.67C189.48,222.85 186.07,219.22 184.7,214.05C183.814,210.526 180.634,208.027 177,208L160.71,208C156.249,208.031 152.596,211.709 152.596,216.17C152.596,216.626 152.634,217.081 152.71,217.53C155.48,234.17 165.22,243.91 172.64,251.33C180.53,259.17 184,263 184,272C184,281 180.53,284.86 172.69,292.7C164,301.47 152,313.42 152,336.06C152,358.7 163.95,370.63 172.69,379.34C178.51,385.16 181.92,388.78 183.29,393.93C184.169,397.466 187.357,399.976 191,400L207.32,400C211.756,399.95 215.378,396.287 215.378,391.851C215.378,391.388 215.338,390.926 215.26,390.47C212.5,373.86 202.76,364.12 195.34,356.72C187.47,348.88 184,345 184,336.06C184,327.12 187.47,323.2 195.31,315.36C204.05,306.63 216,294.67 216,272ZM264,336C264,327 267.47,323.14 275.31,315.3C284.05,306.63 296,294.67 296,272C296,249.33 284.05,237.41 275.31,228.67C269.48,222.85 266.07,219.22 264.7,214.05C263.814,210.526 260.634,208.027 257,208L240.71,208C236.249,208.031 232.596,211.709 232.596,216.17C232.596,216.626 232.634,217.081 232.71,217.53C235.48,234.17 245.22,243.91 252.64,251.33C260.53,259.17 264,263 264,272C264,281 260.53,284.86 252.69,292.7C244,301.47 232,313.42 232,336.06C232,358.7 243.95,370.63 252.69,379.34C258.51,385.16 261.92,388.78 263.29,393.93C264.169,397.466 267.357,399.976 271,400L287.32,400C291.756,399.95 295.378,396.287 295.378,391.851C295.378,391.388 295.338,390.926 295.26,390.47C292.5,373.86 282.76,364.12 275.34,356.72C267.47,348.88 264,345 264,336.06L264,336Z" style="fill:white;fill-rule:nonzero;"/>
        <path d="M384,0L64,0C28.891,0 0,28.891 0,64L0,480C0,497.555 14.445,512 32,512L416,512C433.555,512 448,497.555 448,480L448,64C448,28.891 419.109,0 384,0ZM184,64C197.166,64 208,74.834 208,88C208,101.166 197.166,112 184,112C170.834,112 160,101.166 160,88C160,74.834 170.834,64 184,64ZM64,88C64,74.834 74.834,64 88,64C101.166,64 112,74.834 112,88C112,101.166 101.166,112 88,112C74.834,112 64,101.166 64,88ZM224,448C145.004,448 80,382.996 80,304C80,225.004 145.004,160 224,160C302.996,160 368,225.004 368,304C368,382.996 302.996,448 224,448Z" style="fill:rgb(122,124,127);fill-rule:nonzero;"/>
    </g>
</svg>
