<svg xmlns="http://www.w3.org/2000/svg" width="100" height="100" viewBox="0 0 1024 1024" stroke-linejoin="round"><path d="M957.4 208.2c0-20.5-7.4-38.2-21.9-52.6-14.4-14.4-32.1-21.9-52.6-21.9L138.5 133.8c-20.5 0-38.2 7.5-52.6 21.9-14.4 14.4-21.9 32.1-21.9 52.6l0 565.7c0 20.5 7.4 38.1 21.9 52.6 14.4 14.4 32.1 21.9 52.6 21.9l744.4 0c20.5 0 38.1-7.5 52.6-21.9 14.4-14.4 21.9-32.1 21.9-52.6L957.4 208.2zM148.6 469.9l41.5 0c11.1 0 20-1 26.8-3 6.8-2 13.5-5.8 20-11.3l12.1-12.1c5-5 10.3-10.8 15.9-17.4s11.2-13.2 17-20c5.8-6.8 11.2-13.2 16.2-19.3 10.1-12.6 19.1-17.5 27.2-14.7 8.1 2.8 14.1 8.7 18.1 17.7l33.2 91.4c17.1-47.8 32.2-91.1 45.3-129.8 5.5-16.6 11.1-32.8 16.6-48.7 5.5-15.9 10.6-30.4 15.1-43.8 4.5-13.3 8.3-24.4 11.3-33.2 3-8.8 4.8-14.5 5.3-17 2.5-8.6 6.3-15.5 11.3-20.8 5-5.3 10.6-7.9 16.6-7.9 6.5 0 13.3 1.9 20.4 5.7 7.1 3.8 11.6 11.4 13.6 23 0.5 3 1.5 11.1 3 24.2 1.5 13.1 3.5 29.4 6 49.1 2.5 19.6 5.2 41.4 7.9 65.3 2.8 23.9 5.7 48.2 8.7 72.9 6.5 57.9 14.1 122.6 22.6 194 11.1-36.2 21.1-69.2 30.2-98.9 3.5-12.6 7.2-25.1 10.9-37.4 3.8-12.3 7.3-23.7 10.6-34 3.3-10.3 5.9-19 7.9-26 2-7.1 3.5-11.6 4.5-13.6 2.5-8 5.5-14.1 9.1-18.1 3.5-4 8.3-6.8 14.3-8.3 11.6-3 20.3-1.4 26 4.9 5.8 6.3 8.7 12.7 8.7 19.2 0 5.5-0.5 10.3-1.5 14.3-0.5 2-0.8 3.8-0.8 5.3l27.2 74c0.5-0.5 1.3-1.5 2.3-3 1.5-2.5 4-7.8 7.6-15.9 4-8.5 10.7-14.2 20-17 9.3-2.8 18.3-3.9 26.8-3.4 5.5 0.5 11.1 0.8 16.6 0.8l16.6 0 18.1 0 0 57.4c-3 0.5-6 0.8-9.1 0.8l-19.6 0c-7-0.5-13.6 1.4-19.6 5.7-6 4.3-10.3 8.4-12.8 12.5-2 4-5.5 11.8-10.6 23.4-5 11.6-9.6 23.4-13.6 35.5-2 6.1-5.3 10.1-9.8 12.1-4.5 2-9.2 2.9-14 2.7-4.8-0.3-9.3-1.6-13.6-4.2-4.3-2.5-7.2-5.5-8.7-9-1.5-3.5-4-9.7-7.6-18.5-3.5-8.8-7.1-17.7-10.6-26.8-4.5-10.6-9.1-21.9-13.6-34-13.1 41.8-24.9 80.3-35.5 115.5-4.5 15.1-9.1 29.9-13.6 44.5-4.5 14.6-8.7 28.1-12.5 40.4-3.8 12.3-6.9 22.8-9.4 31.3-2.5 8.5-4 14.4-4.5 17.4-2.5 12.1-7.3 21.6-14.3 28.7-7.1 7-15.6 10.3-25.7 9.8-10.6-1-18.1-5.5-22.7-13.6-4.5-8.1-7.3-17.4-8.3-27.9 0-2.5-0.6-10.3-1.9-23.4-1.3-13.1-2.9-29.7-4.9-49.8-2-20.2-4.1-42.5-6.4-67.2-2.3-24.7-4.7-49.9-7.2-75.5-5.5-59.9-12.1-126.8-19.6-200.8-14.1 41.3-26.7 78.3-37.8 111-4.5 14.1-9.2 27.9-14 41.5-4.8 13.6-9 25.9-12.8 37-3.8 11.1-6.9 20.4-9.4 27.9l-4.5 13.6c-2.5 6.6-5.9 12.6-10.2 18.1-4.3 5.6-10.9 8.1-20 7.5-9.1 0-15.8-3.1-20.4-9.4-4.5-6.3-8.1-13.5-10.6-21.5-1.5-4-4.3-11.8-8.3-23.4-4-11.6-8.3-23.4-12.8-35.5-5.5-14.1-11.3-29.7-17.4-46.8-3.5 4.5-7.3 9.1-11.3 13.6-3.5 4-7.3 8.4-11.3 13.2-4 4.8-8.1 9.4-12.1 14-8.1 9.6-15.6 16.1-22.6 19.6-7.1 3.5-15.4 4.8-24.9 3.8-5-0.5-11.7-0.6-20-0.4-8.3 0.3-16.7 0.4-25.3 0.4-9.6 0.5-20.1 0.7-31.7 0.7L148.6 469.9 148.6 469.9zM148.6 469.9" fill="rgb(122,124,127)"/></svg>