<?xml version="1.0" encoding="UTF-8" standalone="no"?>
<!DOCTYPE svg PUBLIC "-//W3C//DTD SVG 1.1//EN" "http://www.w3.org/Graphics/SVG/1.1/DTD/svg11.dtd">
<svg width="100%" height="100%" viewBox="0 0 512 512" version="1.1" xmlns="http://www.w3.org/2000/svg" xmlns:xlink="http://www.w3.org/1999/xlink" xml:space="preserve" xmlns:serif="http://www.serif.com/" style="fill-rule:evenodd;clip-rule:evenodd;stroke-linejoin:round;stroke-miterlimit:2;">
    <g>
        <path d="M487.75,315.6L445.15,291C449.45,267.798 449.45,244.002 445.15,220.8L487.75,196.2C492.594,193.385 494.883,187.559 493.25,182.2C482.241,147.009 463.557,114.697 438.55,87.6C434.773,83.485 428.598,82.526 423.75,85.3L381.15,109.9C363.256,94.503 342.632,82.596 320.35,74.8L320.35,25.7C320.348,20.115 316.447,15.233 311,14C275.041,6 237.759,6 201.8,14C196.333,15.213 192.407,20.1 192.4,25.7L192.4,74.9C170.173,82.817 149.571,94.711 131.6,110L89.05,85.4C84.212,82.579 78.004,83.544 74.25,87.7C49.202,114.766 30.512,147.089 19.55,182.3C17.874,187.66 20.174,193.514 25.05,196.3L67.65,220.9C63.35,244.102 63.35,267.898 67.65,291.1L25.05,315.7C20.197,318.507 17.906,324.341 19.55,329.7C30.553,364.893 49.238,397.207 74.25,424.3C78.027,428.415 84.202,429.374 89.05,426.6L131.65,402C149.54,417.403 170.165,429.31 192.45,437.1L192.45,486.3C192.457,491.9 196.383,496.787 201.85,498C237.809,506 275.091,506 311.05,498C316.517,496.787 320.443,491.9 320.45,486.3L320.45,437.1C342.676,429.181 363.278,417.287 381.25,402L423.85,426.6C428.689,429.417 434.894,428.453 438.65,424.3C463.702,397.237 482.392,364.913 493.35,329.7C494.922,324.29 492.605,318.458 487.75,315.6ZM256.35,351.8C203.741,351.8 160.45,308.509 160.45,255.9C160.45,203.291 203.741,160 256.35,160C308.959,160 352.25,203.291 352.25,255.9C352.25,255.903 352.25,255.907 352.25,255.91C352.25,308.514 308.964,351.8 256.36,351.8C256.357,351.8 256.353,351.8 256.35,351.8Z" style="fill:rgb(122,124,127);fill-rule:nonzero;"/>
        <path d="M256.35,319.8C221.295,319.8 192.45,290.955 192.45,255.9C192.45,220.845 221.295,192 256.35,192C291.405,192 320.25,220.845 320.25,255.9C320.25,290.955 291.405,319.8 256.35,319.8Z" style="fill:white;fill-rule:nonzero;"/>
    </g>
</svg>
