<?xml version="1.0" encoding="UTF-8" standalone="no"?>
<!DOCTYPE svg PUBLIC "-//W3C//DTD SVG 1.1//EN" "http://www.w3.org/Graphics/SVG/1.1/DTD/svg11.dtd">
<svg width="100%" height="100%" viewBox="0 0 512 512" version="1.1" xmlns="http://www.w3.org/2000/svg" xmlns:xlink="http://www.w3.org/1999/xlink" xml:space="preserve" xmlns:serif="http://www.serif.com/" style="fill-rule:evenodd;clip-rule:evenodd;stroke-linejoin:round;stroke-miterlimit:2;">
    <g>
        <path d="M256,8C119,8 8,119.08 8,256C8,392.92 119,504 256,504C393,504 504,393 504,256C504,119 393,8 256,8ZM256,118C279.041,118 298,136.959 298,160C298,183.041 279.041,202 256,202C232.959,202 214,183.041 214,160C214,136.959 232.959,118 256,118ZM312,372C312,378.583 306.583,384 300,384L212,384C205.417,384 200,378.583 200,372L200,348C200,341.417 205.417,336 212,336L224,336L224,272L212,272C205.417,272 200,266.583 200,260L200,236C200,229.417 205.417,224 212,224L276,224C282.583,224 288,229.417 288,236L288,336L300,336C306.583,336 312,341.417 312,348L312,372Z" style="fill:white;fill-opacity:0.4;fill-rule:nonzero;"/>
        <path d="M256,202C279.041,202 298,183.041 298,160C298,136.959 279.041,118 256,118C232.959,118 214,136.959 214,160C214,183.041 232.959,202 256,202ZM300,336L288,336L288,236C288,229.417 282.583,224 276,224L212,224C205.417,224 200,229.417 200,236L200,260C200,266.583 205.417,272 212,272L224,272L224,336L212,336C205.417,336 200,341.417 200,348L200,372C200,378.583 205.417,384 212,384L300,384C306.583,384 312,378.583 312,372L312,348C312,341.417 306.583,336 300,336Z" style="fill:rgb(122,124,127);fill-rule:nonzero;"/>
    </g>
</svg>
