<svg clip-rule="evenodd" fill-rule="evenodd" stroke-linejoin="round" stroke-miterlimit="2" viewBox="0 0 512 512" xmlns="http://www.w3.org/2000/svg"><g fill-rule="nonzero"><path d="m139.3 67.3c-14.324-14.526-23.585-33.294-26.4-53.5-1.151-7.945-8.073-13.878-16.1-13.8h-16.4c-.026 0-.052 0-.078 0-8.947 0-16.31 7.362-16.31 16.31 0 .564.029 1.129.088 1.69 3.85 31.836 18.13 61.521 40.6 84.4 11.868 12.012 19.7 27.431 22.4 44.1 1.325 7.766 8.122 13.501 16 13.5h16.5c9.8 0 17.6-8.5 16.3-18-3.74-28.216-16.595-54.453-36.6-74.7zm148.6 74.7c-3.74-28.216-16.595-54.453-36.6-74.7-14.324-14.526-23.585-33.294-26.4-53.5-1.151-7.945-8.073-13.878-16.1-13.8h-16.4c-9.8 0-17.5 8.5-16.3 18 3.85 31.836 18.13 61.521 40.6 84.4 11.868 12.012 19.7 27.431 22.4 44.1 1.325 7.766 8.122 13.501 16 13.5h16.5c9.8 0 17.6-8.5 16.3-18z" fill="#7a7c7f"/><path d="m400 192h-368c-17.555 0-32 14.445-32 32v192c0 52.664 43.336 96 96 96h192c52.664 0 96-43.336 96-96h16c61.441 0 112-50.559 112-112s-50.559-112-112-112zm0 160h-16v-96h16c26.332 0 48 21.668 48 48s-21.668 48-48 48z" fill="#fff"/></g></svg>