<?xml version="1.0" encoding="UTF-8" standalone="no"?>
<!DOCTYPE svg PUBLIC "-//W3C//DTD SVG 1.1//EN" "http://www.w3.org/Graphics/SVG/1.1/DTD/svg11.dtd">
<svg width="100%" height="100%" viewBox="0 0 576 512" version="1.1" xmlns="http://www.w3.org/2000/svg" xmlns:xlink="http://www.w3.org/1999/xlink" xml:space="preserve" xmlns:serif="http://www.serif.com/" style="fill-rule:evenodd;clip-rule:evenodd;stroke-linejoin:round;stroke-miterlimit:2;">
    <g>
        <path d="M566.22,82.05C444.81,-27.34 259.26,-27.34 137.78,82C134.365,85.055 132.41,89.426 132.41,94.008C132.41,98.25 134.086,102.325 137.07,105.34L159.41,127.68C165.324,133.656 175.017,133.94 181.27,128.32C277.72,41.77 425.51,42.47 522.38,128.74C528.659,134.282 538.281,134.005 544.23,128.11L566.93,105.41C569.923,102.395 571.605,98.315 571.605,94.066C571.605,89.479 569.644,85.103 566.22,82.05ZM205.88,165.66C202.333,168.72 200.291,173.18 200.291,177.864C200.291,182.141 201.994,186.247 205.02,189.27L227.73,212C233.608,217.876 243.145,218.219 249.43,212.78C308.2,162.94 395.23,163.42 454.57,212.99C460.883,218.308 470.319,217.942 476.2,212.15L499,189.35C502.011,186.313 503.702,182.206 503.702,177.93C503.702,173.253 501.68,168.798 498.16,165.72C414.33,93.81 289.74,93.81 205.88,165.66ZM96,384C78.445,384 64,398.445 64,416C64,433.555 78.445,448 96,448C113.555,448 128,433.555 128,416C128,398.445 113.555,384 96,384Z" style="fill:rgb(122,124,127);fill-rule:nonzero;"/>
        <path d="M528,320L376,320L376,240C376,231.223 368.777,224 360,224L344,224C335.223,224 328,231.223 328,240L328,320L48,320C21.668,320 0,341.668 0,368L0,464C0,490.332 21.668,512 48,512L528,512C554.332,512 576,490.332 576,464L576,368C576,341.668 554.332,320 528,320ZM96,448C78.445,448 64,433.555 64,416C64,398.445 78.445,384 96,384C113.555,384 128,398.445 128,416C128,433.555 113.555,448 96,448ZM192,448C174.445,448 160,433.555 160,416C160,398.445 174.445,384 192,384C209.555,384 224,398.445 224,416C224,433.555 209.555,448 192,448Z" style="fill:white;fill-rule:nonzero;"/>
    </g>
</svg>
