<svg xmlns="http://www.w3.org/2000/svg" width="100" height="100" viewBox="0 0 320 512" stroke-linejoin="round"><path d="M272 278.5L272 112C272 50.6 221.4 0 160 0 98.6 0 48 50.6 48 112L48 278.5C28.3 303.2 16 334 16 368 16 447 81 512 160 512 239 512 304 447 304 368 304 334 291.7 303.1 272 278.5ZM160 448C160 448 159.9 448 159.9 448 116.1 448 80 411.9 80 368.1 80 343 91.9 319.3 112 304.2L112 112C112 85.7 133.7 64 160 64 186.3 64 208 85.7 208 112L208 304.2C228.1 319.3 240 343 240 368.1 240 411.9 203.9 448 160.1 448 160.1 448 160 448 160 448Z" fill="rgb(122,124,127)"/><path d="M208 368C208 368.1 208 368.1 208 368.2 208 394.5 186.3 416.2 160 416.2 133.7 416.2 112 394.5 112 368.2 112 347.9 124.9 329.7 144 322.9L144 208C144 199.2 151.2 192 160 192 168.8 192 176 199.2 176 208L176 322.9C195.1 329.6 208 347.8 208 368Z" fill="IndianRed"/></svg>