<?xml version="1.0" encoding="UTF-8" standalone="no"?>
<!DOCTYPE svg PUBLIC "-//W3C//DTD SVG 1.1//EN" "http://www.w3.org/Graphics/SVG/1.1/DTD/svg11.dtd">
<svg width="100%" height="100%" viewBox="0 0 320 512" version="1.1" xmlns="http://www.w3.org/2000/svg" xmlns:xlink="http://www.w3.org/1999/xlink" xml:space="preserve" xmlns:serif="http://www.serif.com/" style="fill-rule:evenodd;clip-rule:evenodd;stroke-linejoin:round;stroke-miterlimit:2;">
    <g>
        <path d="M272,278.5L272,112C272,50.559 221.441,0 160,0C98.559,0 48,50.559 48,112L48,278.5C28.3,303.2 16,334 16,368C16,446.996 81.004,512 160,512C238.996,512 304,446.996 304,368C304,334 291.7,303.1 272,278.5ZM160,448C159.959,448 159.918,448 159.877,448C116.061,448 80.007,411.945 80.007,368.13C80.007,342.989 91.877,319.27 112,304.2L112,112C112,85.668 133.668,64 160,64C186.332,64 208,85.668 208,112L208,304.2C228.123,319.27 239.993,342.989 239.993,368.13C239.993,411.945 203.939,448 160.123,448C160.082,448 160.041,448 160,448Z" style="fill:rgb(122,124,127);fill-rule:nonzero;"/>
        <path d="M208,368C208,368.052 208,368.103 208,368.155C208,394.487 186.332,416.155 160,416.155C133.668,416.155 112,394.487 112,368.155C112,347.862 124.868,329.664 144,322.9L144,208C144,199.223 151.223,192 160,192C168.777,192 176,199.223 176,208L176,322.9C195.103,329.613 207.973,347.752 208,368Z" style="fill:white;fill-rule:nonzero;"/>
    </g>
</svg>
