<?xml version="1.0" encoding="UTF-8" standalone="no"?>
<!DOCTYPE svg PUBLIC "-//W3C//DTD SVG 1.1//EN" "http://www.w3.org/Graphics/SVG/1.1/DTD/svg11.dtd">
<svg width="100%" height="100%" viewBox="0 0 640 512" version="1.1" xmlns="http://www.w3.org/2000/svg" xmlns:xlink="http://www.w3.org/1999/xlink" xml:space="preserve" xmlns:serif="http://www.serif.com/" style="fill-rule:evenodd;clip-rule:evenodd;stroke-linejoin:round;stroke-miterlimit:2;">
    <g>
        <path d="M512,352.16C535.26,371.82 569.36,384 608,384L624,384C632.777,384 640,376.777 640,368L640,336C640,327.223 632.777,320 624,320L608,320C582,320 562.2,311.58 551.91,302.1C543.01,293.89 532.25,288 520.14,288L503.84,288C491.73,288 480.97,293.89 472.07,302.1C463.83,309.7 449.27,316.4 430.48,318.84C427.377,342.93 416.489,365.36 399.48,382.7C404.94,383.21 410.27,384 415.94,384C454.6,384 488.7,371.81 512,352.16ZM624,448L608,448C582,448 562.2,439.58 551.91,430.1C543.01,421.89 532.25,416 520.14,416L503.84,416C491.73,416 480.97,421.89 472.07,430.1C461.8,439.58 442,448 416,448C390,448 370.2,439.58 359.91,430.1C351.01,421.89 340.25,416 328.14,416L311.84,416C299.73,416 288.97,421.89 280.07,430.1C269.8,439.58 250,448 224,448C198,448 178.2,439.58 167.91,430.1C159.01,421.89 148.25,416 136.14,416L119.84,416C107.73,416 96.97,421.89 88.07,430.1C77.8,439.58 58,448 32,448L16,448C7.223,448 0,455.223 0,464L0,496C0,504.777 7.223,512 16,512L32,512C70.62,512 104.72,499.81 128,480.16C151.28,499.82 185.38,512 224,512C262.62,512 296.72,499.81 320,480.16C343.28,499.82 377.38,512 416,512C454.62,512 488.72,499.81 512,480.16C535.28,499.82 569.38,512 608,512L624,512C632.777,512 640,504.777 640,496L640,464C640,455.223 632.777,448 624,448ZM16,384L32,384C70.62,384 104.72,371.81 128,352.16C151.28,371.82 185.38,384 224,384C229.67,384 235,383.21 240.46,382.7C223.447,365.363 212.558,342.932 209.46,318.84C190.67,316.4 176.12,309.7 167.87,302.1C158.97,293.89 148.21,288 136.1,288L119.8,288C107.69,288 96.93,293.89 88.03,302.1C77.8,311.58 58,320 32,320L16,320C7.223,320 0,327.223 0,336L0,368C0,376.777 7.223,384 16,384Z" style="fill:rgb(122,124,127);fill-rule:nonzero;"/>
        <path d="M416,16L416,32C416,40.777 408.777,48 400,48L352,48L352,80L400,80C408.777,80 416,87.223 416,96L416,112C416,120.777 408.777,128 400,128L352,128L352,160L400,160C408.777,160 416,167.223 416,176L416,192C416,200.777 408.777,208 400,208L352,208L352,230.75C381.099,243.45 400,272.321 400,304.071C400,347.958 363.887,384.071 320,384.071C276.113,384.071 240,347.958 240,304.071C240,272.321 258.901,243.45 288,230.75L288,16C288,7.223 295.223,0 304,0L400,0C408.777,0 416,7.223 416,16Z" style="fill:white;fill-rule:nonzero;"/>
    </g>
</svg>
