<?xml version="1.0" encoding="UTF-8" standalone="no"?>
<!DOCTYPE svg PUBLIC "-//W3C//DTD SVG 1.1//EN" "http://www.w3.org/Graphics/SVG/1.1/DTD/svg11.dtd">
<svg width="100%" height="100%" viewBox="0 0 640 512" version="1.1" xmlns="http://www.w3.org/2000/svg" xmlns:xlink="http://www.w3.org/1999/xlink" xml:space="preserve" xmlns:serif="http://www.serif.com/" style="fill-rule:evenodd;clip-rule:evenodd;stroke-linejoin:round;stroke-miterlimit:2;">
    <g>
        <path d="M634.9,154.9C457.7,-9 182.2,-8.9 5.1,154.9C-1.3,160.9 -1.7,170.9 4.2,177.4C4.4,177.6 4.5,177.8 4.7,177.9L38.9,211.9C45.1,218 54.9,218.1 61.3,212.3C207.2,78.6 432.6,78.6 578.5,212.3C584.9,218.2 594.7,218 600.9,211.9L635.1,177.9C641.4,171.7 641.4,161.7 635.3,155.4C635.3,155.2 635.1,155 634.9,154.9ZM522.7,268.4C407.4,166.5 232.5,166.6 117.4,268.4C110.9,274.2 110.3,284.2 116,290.7C116.3,291 116.5,291.3 116.8,291.5L151.2,325.5C157.2,331.4 166.8,331.8 173.3,326.3C257.2,253.7 383,253.9 466.8,326.3C473.2,331.8 482.8,331.5 488.8,325.5L523.2,291.5C529.4,285.4 529.6,275.4 523.5,269.1C523.2,268.9 523,268.7 522.7,268.4Z" style="fill:rgb(122,124,127);fill-rule:nonzero;"/>
        <path d="M320,352C355.3,352 384,380.7 384,416C384,451.3 355.3,480 320,480C284.7,480 256,451.3 256,416C256,380.7 284.7,352 320,352Z" style="fill:white;fill-rule:nonzero;"/>
    </g>
</svg>
